<svg height="496pt" viewBox="0 0 496 496" width="496pt" xmlns="http://www.w3.org/2000/svg"><path d="m216 424h-8v-16c0-1.121094-.230469-2.222656-.6875-3.246094l-32-72c-1.289062-2.898437-4.144531-4.753906-7.3125-4.753906h-144c-4.425781 0-8 3.574219-8 8v88h-8c-4.425781 0-8 3.574219-8 8v32c0 4.425781 3.574219 8 8 8h25.136719c3.574219 13.769531 15.992187 24 30.863281 24s27.289062-10.230469 30.863281-24h34.273438c3.574219 13.769531 15.992187 24 30.863281 24s27.289062-10.230469 30.863281-24h25.136719c4.425781 0 8-3.574219 8-8v-32c0-4.425781-3.574219-8-8-8zm-152 56c-8.824219 0-16-7.175781-16-16s7.175781-16 16-16 16 7.175781 16 16-7.175781 16-16 16zm96 0c-8.824219 0-16-7.175781-16-16s7.175781-16 16-16 16 7.175781 16 16-7.175781 16-16 16zm48-24h-17.136719c-3.574219-13.769531-15.992187-24-30.863281-24s-27.289062 10.230469-30.863281 24h-34.273438c-3.574219-13.769531-15.992187-24-30.863281-24s-27.289062 10.230469-30.863281 24h-17.136719v-16h8c4.425781 0 8-3.574219 8-8v-88h130.808594l29.191406 65.695312v22.304688c0 4.425781 3.574219 8 8 8h8zm0 0"/><path d="m159.433594 365.03125c-1.226563-3.039062-4.160156-5.03125-7.433594-5.03125h-32c-4.425781 0-8 3.574219-8 8v40c0 4.425781 3.574219 8 8 8h48c2.65625 0 5.136719-1.320312 6.625-3.511719 1.488281-2.191406 1.789062-4.992187.808594-7.457031zm-31.433594 34.96875v-24h18.585938l9.597656 24zm0 0"/><path d="m88 360h-32c-4.425781 0-8 3.574219-8 8v40c0 4.425781 3.574219 8 8 8h32c4.425781 0 8-3.574219 8-8v-40c0-4.425781-3.574219-8-8-8zm-8 40h-16v-24h16zm0 0"/><path d="m136 304h240c22.054688 0 40 17.945312 40 40s-17.945312 40-40 40h-136v16h136c30.871094 0 56-25.128906 56-56s-25.128906-56-56-56h-240c-66.167969 0-120-53.832031-120-120s53.832031-120 120-120h232v-16h-232c-74.992188 0-136 61.007812-136 136s61.007812 136 136 136zm0 0"/><path d="m376 224h-120v-17.414062c13.769531-4.472657 24-20 24-38.585938 0-22.054688-14.351562-40-32-40s-32 17.945312-32 40c0 18.585938 10.230469 34.105469 24 38.585938v17.414062h-64v-17.414062c13.769531-4.472657 24-20 24-38.585938 0-22.054688-14.351562-40-32-40s-32 17.945312-32 40c0 18.585938 10.230469 34.105469 24 38.585938v17.414062h-24c-30.871094 0-56-25.128906-56-56s25.128906-56 56-56h232v-16h-232c-39.703125 0-72 32.296875-72 72s32.296875 72 72 72h240c57.34375 0 104 46.65625 104 104s-46.65625 104-104 104h-136v16h136c66.167969 0 120-53.832031 120-120s-53.832031-120-120-120zm-144-56c0-13.007812 7.328125-24 16-24s16 10.992188 16 24-7.328125 24-16 24-16-10.992188-16-24zm-80 0c0-13.007812 7.328125-24 16-24s16 10.992188 16 24-7.328125 24-16 24-16-10.992188-16-24zm0 0"/><path d="m344 64h24v16h-24zm0 0"/><path d="m280 64h32v16h-32zm0 0"/><path d="m216 64h32v16h-32zm0 0"/><path d="m152 64h32v16h-32zm0 0"/><path d="m92.007812 91.769531c9.089844-5.257812 18.945313-8.808593 29.320313-10.546875l-2.65625-15.78125c-12.265625 2.0625-23.929687 6.253906-34.679687 12.488282zm0 0"/><path d="m51.519531 107.328125c-7.550781 10.496094-13.023437 22.167969-16.246093 34.671875l15.503906 4c2.726562-10.585938 7.34375-20.457031 13.734375-29.328125zm0 0"/><path d="m32.351562 176.65625c1 12.054688 4.054688 23.726562 9.082032 34.679688l14.542968-6.671876c-4.25-9.257812-6.832031-19.128906-7.671874-29.320312zm0 0"/><path d="m77.800781 234-10.601562 12c10.058593 8.871094 21.535156 15.632812 34.136719 20.078125l5.328124-15.078125c-10.648437-3.769531-20.359374-9.488281-28.863281-17zm0 0"/><path d="m136 256h32v16h-32zm0 0"/><path d="m200 256h32v16h-32zm0 0"/><path d="m264 256h32v16h-32zm0 0"/><path d="m328 256h32v16h-32zm0 0"/><path d="m428.816406 273.601562c-10.519531-7.90625-22.375-13.234374-35.222656-15.839843l-3.167969 15.6875c10.496094 2.125 20.175781 6.488281 28.789063 12.949219zm0 0"/><path d="m456.671875 308.800781-14.65625 6.398438c3.96875 9.097656 5.984375 18.785156 5.984375 28.800781h16c0-12.230469-2.464844-24.078125-7.328125-35.199219zm0 0"/><path d="m419.199219 401.601562 9.609375 12.796876c12.160156-9.140626 21.792968-21.300782 27.855468-35.191407l-14.648437-6.40625c-4.96875 11.359375-12.855469 21.328125-22.816406 28.800781zm0 0"/><path d="m360 416v16h16c5.894531 0 11.816406-.59375 17.585938-1.761719l-3.171876-15.6875c-4.726562.960938-9.582031 1.449219-14.414062 1.449219zm0 0"/><path d="m296 416h32v16h-32zm0 0"/><path d="m240 416h24v16h-24zm0 0"/><path d="m432 111.359375v80.640625h16v-80.640625c27.089844-3.902344 48-27.207031 48-55.359375 0-30.871094-25.128906-56-56-56s-56 25.128906-56 56c0 28.152344 20.910156 51.457031 48 55.359375zm8-95.359375c22.054688 0 40 17.945312 40 40s-17.945312 40-40 40-40-17.945312-40-40 17.945312-40 40-40zm0 0"/><path d="m464 56h-16c0 4.414062-3.585938 8-8 8v16c13.230469 0 24-10.769531 24-24zm0 0"/></svg>